<svg width="24" height="24" viewBox="0 0 24 24" fill="none" xmlns="http://www.w3.org/2000/svg">
<g clip-path="url(#clip0_83_52)">
<path fill-rule="evenodd" clip-rule="evenodd" d="M17.5 1C19.0471 1 20.5308 1.61458 21.6248 2.70854C22.7188 3.80251 23.3333 5.28624 23.3333 6.83333V16.1667C23.3333 17.7138 22.7188 19.1975 21.6248 20.2915C20.5308 21.3854 19.0471 22 17.5 22H1.16667C0.857247 22 0.560501 21.8771 0.341709 21.6583C0.122916 21.4395 0 21.1428 0 20.8333V6.83333C0 5.28624 0.614582 3.80251 1.70854 2.70854C2.80251 1.61458 4.28624 1 5.83333 1H17.5ZM8.16667 9.16667C7.88091 9.1667 7.60511 9.27161 7.39157 9.4615C7.17803 9.65139 7.0416 9.91304 7.00817 10.1968L7 10.3333V12.6667C7.00033 12.964 7.11419 13.25 7.31832 13.4663C7.52245 13.6825 7.80145 13.8126 8.09829 13.83C8.39514 13.8475 8.68744 13.7509 8.91547 13.56C9.1435 13.3692 9.29005 13.0984 9.32517 12.8032L9.33333 12.6667V10.3333C9.33333 10.0239 9.21042 9.72717 8.99162 9.50838C8.77283 9.28958 8.47609 9.16667 8.16667 9.16667ZM15.1667 9.16667C14.8572 9.16667 14.5605 9.28958 14.3417 9.50838C14.1229 9.72717 14 10.0239 14 10.3333V12.6667C14 12.9761 14.1229 13.2728 14.3417 13.4916C14.5605 13.7104 14.8572 13.8333 15.1667 13.8333C15.4761 13.8333 15.7728 13.7104 15.9916 13.4916C16.2104 13.2728 16.3333 12.9761 16.3333 12.6667V10.3333C16.3333 10.0239 16.2104 9.72717 15.9916 9.50838C15.7728 9.28958 15.4761 9.16667 15.1667 9.16667Z" fill="#0AE387"/>
</g>
<defs>
<clipPath id="clip0_83_52">
<rect width="24" height="24" fill="white"/>
</clipPath>
</defs>
</svg>
