<svg width="166" height="45" viewBox="0 0 166 45" fill="none" xmlns="http://www.w3.org/2000/svg">
<path d="M0.900414 45V13.0193H26.0973L0.900414 45Z" fill="#0AE387"/>
<rect x="0.900391" width="69.8485" height="38.4435" rx="5.53372" fill="#0AE387"/>
<path d="M19.3725 10.3464C21.3576 10.3464 23.073 10.861 24.5435 11.8658V14.9537C23.0975 13.7283 21.3821 13.1157 19.3725 13.1157C17.657 13.1157 16.2111 13.7038 15.0593 14.8556C13.9075 16.0075 13.3438 17.4534 13.3438 19.1934C13.3438 20.9334 13.9075 22.3793 15.0593 23.5311C16.2111 24.6829 17.657 25.2466 19.3725 25.2466C20.9899 25.2466 22.3623 24.7319 23.4651 23.7026V20.6883H18.7108V17.919H26.357V24.8054C24.764 26.7905 22.1908 28.0159 19.3725 28.0159C16.8483 28.0159 14.6917 27.1826 12.9272 25.5161C11.1872 23.8252 10.3049 21.7176 10.3049 19.1934C10.3049 16.6692 11.1872 14.5616 12.9272 12.8706C14.6917 11.1796 16.8483 10.3464 19.3725 10.3464ZM34.0544 15.1007C36.0885 15.1007 37.5834 15.9585 38 17.1593V15.3703H40.9409V27.7218H38V25.9328C37.5834 27.1336 36.0885 27.9913 34.0544 27.9913C32.3144 27.9913 30.844 27.3787 29.6432 26.1533C28.4669 24.9035 27.8787 23.384 27.8787 21.546C27.8787 19.708 28.4669 18.1886 29.6432 16.9632C30.844 15.7134 32.3144 15.1007 34.0544 15.1007ZM34.4465 25.3201C35.5003 25.3201 36.4071 24.9525 37.1178 24.2418C37.853 23.5311 38.2206 22.6243 38.2206 21.546C38.2206 20.4677 37.853 19.561 37.1178 18.8503C36.4071 18.1396 35.5003 17.772 34.4465 17.772C33.3927 17.772 32.535 18.1396 31.8243 18.8503C31.1381 19.561 30.795 20.4677 30.795 21.546C30.795 22.6243 31.1381 23.5311 31.8243 24.2418C32.535 24.9525 33.3927 25.3201 34.4465 25.3201ZM44.4756 13.9244C43.4953 13.9244 42.7111 13.1647 42.7111 12.1844C42.7111 11.2041 43.4953 10.4444 44.4756 10.4444C45.4314 10.4444 46.2156 11.2041 46.2156 12.1844C46.2156 13.1647 45.4314 13.9244 44.4756 13.9244ZM45.946 27.7218H43.0052V15.3703H45.946V27.7218ZM53.6801 15.1007C55.7141 15.1007 57.2091 15.9585 57.6257 17.1593V15.3703H60.5665V27.7218H57.6257V25.9328C57.2091 27.1336 55.7141 27.9913 53.6801 27.9913C51.9401 27.9913 50.4697 27.3787 49.2688 26.1533C48.0925 24.9035 47.5043 23.384 47.5043 21.546C47.5043 19.708 48.0925 18.1886 49.2688 16.9632C50.4697 15.7134 51.9401 15.1007 53.6801 15.1007ZM54.0722 25.3201C55.126 25.3201 56.0327 24.9525 56.7434 24.2418C57.4786 23.5311 57.8462 22.6243 57.8462 21.546C57.8462 20.4677 57.4786 19.561 56.7434 18.8503C56.0327 18.1396 55.126 17.772 54.0722 17.772C53.0184 17.772 52.1606 18.1396 51.4499 18.8503C50.7637 19.561 50.4206 20.4677 50.4206 21.546C50.4206 22.6243 50.7637 23.5311 51.4499 24.2418C52.1606 24.9525 53.0184 25.3201 54.0722 25.3201Z" fill="white"/>
<path d="M80.5983 16.0634V2.69106H88.6756V4.12701H82.2138V8.59641H88.2448V10.0324H82.2138V14.6274H88.7653V16.0634H80.5983ZM97.4306 8.29127L96.0485 8.6682C95.9168 8.32717 95.6895 8.00408 95.3664 7.69894C95.0493 7.38781 94.5527 7.23225 93.8766 7.23225C93.2663 7.23225 92.7577 7.37585 92.3509 7.66304C91.944 7.94424 91.7406 8.29725 91.7406 8.72205C91.7406 9.10497 91.8782 9.41011 92.1534 9.63747C92.4346 9.86483 92.8714 10.0503 93.4637 10.1939L94.9535 10.5529C95.845 10.7683 96.5092 11.1003 96.9459 11.5491C97.3887 11.9978 97.61 12.5692 97.61 13.2632C97.61 13.8376 97.4455 14.3522 97.1164 14.8069C96.7874 15.2616 96.3297 15.6206 95.7433 15.8839C95.157 16.1471 94.4749 16.2787 93.6971 16.2787C92.674 16.2787 91.8274 16.0544 91.1572 15.6056C90.4931 15.1569 90.0713 14.5077 89.8918 13.6581L91.3457 13.2991C91.4833 13.8376 91.7466 14.2415 92.1355 14.5107C92.5304 14.78 93.0449 14.9146 93.6791 14.9146C94.3911 14.9146 94.9595 14.762 95.3843 14.4569C95.8151 14.1458 96.0305 13.7778 96.0305 13.353C96.0305 12.647 95.5339 12.1743 94.5407 11.935L92.8714 11.5401C91.95 11.3187 91.2739 10.9807 90.8431 10.526C90.4123 10.0712 90.1969 9.49986 90.1969 8.8118C90.1969 8.2434 90.3555 7.74082 90.6726 7.30405C90.9957 6.86728 91.4355 6.52624 91.9919 6.28093C92.5483 6.02964 93.1765 5.904 93.8766 5.904C94.8758 5.904 95.6566 6.12537 96.219 6.56812C96.7874 7.00489 97.1912 7.57927 97.4306 8.29127ZM103.242 6.02964V7.33995H98.0545V6.02964H103.242ZM99.5622 3.64237H101.088V13.1915C101.088 13.712 101.196 14.0949 101.411 14.3402C101.626 14.5795 101.967 14.6992 102.434 14.6992C102.536 14.6992 102.641 14.6932 102.748 14.6813C102.862 14.6693 102.985 14.6513 103.116 14.6274L103.439 16.0095C103.296 16.0634 103.119 16.1052 102.91 16.1352C102.706 16.1711 102.5 16.189 102.291 16.189C101.483 16.189 100.825 15.9497 100.316 15.471C99.8135 14.9924 99.5622 14.3701 99.5622 13.6043V3.64237ZM104.53 16.0634V6.02964H106.002V7.55534H106.109C106.295 7.05874 106.627 6.65787 107.106 6.35273C107.59 6.04161 108.132 5.88605 108.73 5.88605C108.844 5.88605 108.984 5.88904 109.152 5.89502C109.319 5.89502 109.448 5.89801 109.538 5.904V7.46559C109.484 7.45363 109.364 7.43568 109.179 7.41175C108.993 7.38781 108.796 7.37585 108.586 7.37585C108.102 7.37585 107.668 7.47756 107.285 7.68099C106.902 7.88441 106.6 8.16263 106.379 8.51563C106.163 8.86864 106.056 9.2725 106.056 9.72722V16.0634H104.53ZM113.267 16.2967C112.633 16.2967 112.055 16.177 111.535 15.9377C111.014 15.6924 110.601 15.3394 110.296 14.8787C109.991 14.418 109.839 13.8616 109.839 13.2094C109.839 12.635 109.952 12.1713 110.18 11.8183C110.407 11.4593 110.709 11.1781 111.086 10.9747C111.469 10.7653 111.888 10.6097 112.343 10.508C112.803 10.4063 113.267 10.3255 113.734 10.2657C114.344 10.1879 114.838 10.1281 115.214 10.0862C115.597 10.0443 115.876 9.97253 116.049 9.87081C116.229 9.7691 116.318 9.59559 116.318 9.35028V9.29643C116.318 8.65624 116.142 8.15964 115.789 7.80663C115.442 7.44764 114.912 7.26815 114.2 7.26815C113.47 7.26815 112.896 7.4297 112.477 7.75278C112.058 8.06989 111.765 8.41093 111.598 8.7759L110.126 8.25537C110.389 7.64509 110.739 7.16943 111.176 6.82839C111.619 6.48735 112.097 6.24803 112.612 6.11042C113.132 5.9728 113.644 5.904 114.146 5.904C114.47 5.904 114.841 5.94289 115.259 6.02067C115.678 6.09247 116.085 6.24803 116.48 6.48735C116.881 6.72069 117.21 7.07669 117.467 7.55534C117.73 8.02801 117.862 8.66222 117.862 9.45798V16.0634H116.318V14.6992H116.247C116.145 14.9146 115.971 15.1479 115.726 15.3992C115.481 15.6445 115.155 15.8569 114.748 16.0364C114.347 16.2099 113.853 16.2967 113.267 16.2967ZM113.5 14.9146C114.111 14.9146 114.625 14.7949 115.044 14.5556C115.463 14.3163 115.78 14.0081 115.995 13.6312C116.211 13.2483 116.318 12.8504 116.318 12.4376V11.0196C116.253 11.0974 116.109 11.1692 115.888 11.235C115.672 11.2948 115.421 11.3486 115.134 11.3965C114.852 11.4444 114.577 11.4863 114.308 11.5222C114.039 11.5521 113.823 11.576 113.662 11.594C113.261 11.6478 112.887 11.7346 112.54 11.8542C112.193 11.9679 111.912 12.1384 111.696 12.3658C111.487 12.5931 111.382 12.9043 111.382 13.2991C111.382 13.8316 111.58 14.2355 111.975 14.5107C112.375 14.78 112.884 14.9146 113.5 14.9146ZM123.996 6.02964V7.33995H118.809V6.02964H123.996ZM120.317 3.64237H121.842V13.1915C121.842 13.712 121.95 14.0949 122.166 14.3402C122.381 14.5795 122.722 14.6992 123.189 14.6992C123.29 14.6992 123.395 14.6932 123.503 14.6813C123.616 14.6693 123.739 14.6513 123.871 14.6274L124.194 16.0095C124.05 16.0634 123.874 16.1052 123.664 16.1352C123.461 16.1711 123.254 16.189 123.045 16.189C122.237 16.189 121.579 15.9497 121.071 15.471C120.568 14.9924 120.317 14.3701 120.317 13.6043V3.64237ZM129.377 16.2787C128.414 16.2787 127.579 16.0634 126.873 15.6326C126.173 15.2018 125.634 14.6005 125.258 13.8287C124.881 13.0508 124.692 12.1504 124.692 11.1273C124.692 10.0982 124.878 9.19173 125.249 8.40794C125.619 7.62415 126.14 7.01088 126.81 6.56812C127.486 6.12537 128.276 5.904 129.179 5.904C129.7 5.904 130.218 5.99075 130.732 6.16426C131.247 6.33777 131.713 6.61898 132.132 7.00788C132.557 7.39679 132.895 7.91134 133.146 8.55153C133.398 9.19173 133.523 9.97851 133.523 10.9119V11.576H125.787V10.2478H132.689L131.98 10.7503C131.98 10.0802 131.875 9.4849 131.665 8.96437C131.456 8.44384 131.142 8.03399 130.723 7.73484C130.31 7.43568 129.796 7.2861 129.179 7.2861C128.563 7.2861 128.034 7.43867 127.591 7.74381C127.154 8.04297 126.819 8.43486 126.586 8.9195C126.352 9.40413 126.236 9.92466 126.236 10.4811V11.3606C126.236 12.1205 126.367 12.7637 126.631 13.2902C126.894 13.8167 127.262 14.2176 127.735 14.4928C128.207 14.762 128.755 14.8966 129.377 14.8966C129.778 14.8966 130.143 14.8398 130.472 14.7261C130.801 14.6065 131.085 14.43 131.324 14.1966C131.564 13.9573 131.746 13.6641 131.872 13.3171L133.362 13.7479C133.206 14.2505 132.943 14.6932 132.572 15.0761C132.207 15.4531 131.752 15.7492 131.208 15.9646C130.663 16.174 130.053 16.2787 129.377 16.2787ZM138.832 20.0302C137.713 20.0302 136.828 19.8267 136.175 19.4199C135.529 19.013 135.051 18.5464 134.739 18.0198L135.96 17.1583C136.098 17.3437 136.274 17.5532 136.49 17.7865C136.705 18.0258 136.998 18.2322 137.369 18.4058C137.74 18.5793 138.228 18.666 138.832 18.666C139.64 18.666 140.307 18.4716 140.833 18.0827C141.366 17.6938 141.632 17.0805 141.632 16.2428V14.2146H141.488C141.381 14.3941 141.222 14.6184 141.013 14.8877C140.809 15.1509 140.513 15.3873 140.124 15.5967C139.741 15.8001 139.221 15.9018 138.563 15.9018C137.755 15.9018 137.031 15.7103 136.391 15.3274C135.751 14.9445 135.242 14.3881 134.865 13.6581C134.494 12.9282 134.309 12.0427 134.309 11.0016C134.309 9.97253 134.488 9.07805 134.847 8.31819C135.212 7.55235 135.718 6.96002 136.364 6.5412C137.01 6.1164 137.755 5.904 138.599 5.904C139.251 5.904 139.768 6.01169 140.151 6.22709C140.54 6.44248 140.836 6.68779 141.04 6.96301C141.249 7.23225 141.411 7.45363 141.524 7.62714H141.686V6.02964H143.158V16.3505C143.158 17.2121 142.963 17.9121 142.574 18.4506C142.191 18.9951 141.671 19.393 141.013 19.6443C140.361 19.9015 139.634 20.0302 138.832 20.0302ZM138.778 14.5197C139.705 14.5197 140.414 14.2056 140.905 13.5774C141.402 12.9491 141.65 12.0786 141.65 10.9657C141.65 10.2418 141.542 9.60456 141.327 9.05412C141.111 8.50367 140.788 8.07288 140.358 7.76176C139.933 7.44465 139.406 7.2861 138.778 7.2861C138.126 7.2861 137.581 7.45363 137.145 7.78868C136.714 8.11776 136.391 8.56051 136.175 9.11694C135.96 9.67337 135.852 10.2896 135.852 10.9657C135.852 11.6598 135.96 12.276 136.175 12.8145C136.397 13.347 136.726 13.7658 137.163 14.071C137.599 14.3701 138.138 14.5197 138.778 14.5197ZM144.948 16.0634V6.02964H146.474V16.0634H144.948ZM145.72 4.36035C145.421 4.36035 145.164 4.25864 144.948 4.05521C144.733 3.85178 144.625 3.60647 144.625 3.31928C144.625 3.03209 144.733 2.78679 144.948 2.58336C145.164 2.37993 145.421 2.27822 145.72 2.27822C146.019 2.27822 146.277 2.37993 146.492 2.58336C146.707 2.78679 146.815 3.03209 146.815 3.31928C146.815 3.60647 146.707 3.85178 146.492 4.05521C146.277 4.25864 146.019 4.36035 145.72 4.36035ZM151.208 16.2967C150.574 16.2967 149.997 16.177 149.476 15.9377C148.956 15.6924 148.543 15.3394 148.238 14.8787C147.933 14.418 147.78 13.8616 147.78 13.2094C147.78 12.635 147.894 12.1713 148.121 11.8183C148.348 11.4593 148.651 11.1781 149.028 10.9747C149.41 10.7653 149.829 10.6097 150.284 10.508C150.745 10.4063 151.208 10.3255 151.675 10.2657C152.285 10.1879 152.779 10.1281 153.156 10.0862C153.539 10.0443 153.817 9.97253 153.991 9.87081C154.17 9.7691 154.26 9.59559 154.26 9.35028V9.29643C154.26 8.65624 154.083 8.15964 153.73 7.80663C153.383 7.44764 152.854 7.26815 152.142 7.26815C151.412 7.26815 150.837 7.4297 150.419 7.75278C150 8.06989 149.707 8.41093 149.539 8.7759L148.067 8.25537C148.33 7.64509 148.681 7.16943 149.117 6.82839C149.56 6.48735 150.039 6.24803 150.553 6.11042C151.074 5.9728 151.585 5.904 152.088 5.904C152.411 5.904 152.782 5.94289 153.201 6.02067C153.62 6.09247 154.026 6.24803 154.421 6.48735C154.822 6.72069 155.151 7.07669 155.409 7.55534C155.672 8.02801 155.803 8.66222 155.803 9.45798V16.0634H154.26V14.6992H154.188C154.086 14.9146 153.913 15.1479 153.667 15.3992C153.422 15.6445 153.096 15.8569 152.689 16.0364C152.288 16.2099 151.795 16.2967 151.208 16.2967ZM151.442 14.9146C152.052 14.9146 152.567 14.7949 152.985 14.5556C153.404 14.3163 153.721 14.0081 153.937 13.6312C154.152 13.2483 154.26 12.8504 154.26 12.4376V11.0196C154.194 11.0974 154.05 11.1692 153.829 11.235C153.614 11.2948 153.362 11.3486 153.075 11.3965C152.794 11.4444 152.519 11.4863 152.249 11.5222C151.98 11.5521 151.765 11.576 151.603 11.594C151.202 11.6478 150.828 11.7346 150.481 11.8542C150.134 11.9679 149.853 12.1384 149.638 12.3658C149.428 12.5931 149.324 12.9043 149.324 13.2991C149.324 13.8316 149.521 14.2355 149.916 14.5107C150.317 14.78 150.825 14.9146 151.442 14.9146ZM164.684 8.29127L163.302 8.6682C163.17 8.32717 162.943 8.00408 162.62 7.69894C162.303 7.38781 161.806 7.23225 161.13 7.23225C160.52 7.23225 160.011 7.37585 159.604 7.66304C159.198 7.94424 158.994 8.29725 158.994 8.72205C158.994 9.10497 159.132 9.41011 159.407 9.63747C159.688 9.86483 160.125 10.0503 160.717 10.1939L162.207 10.5529C163.099 10.7683 163.763 11.1003 164.199 11.5491C164.642 11.9978 164.864 12.5692 164.864 13.2632C164.864 13.8376 164.699 14.3522 164.37 14.8069C164.041 15.2616 163.583 15.6206 162.997 15.8839C162.41 16.1471 161.728 16.2787 160.951 16.2787C159.927 16.2787 159.081 16.0544 158.411 15.6056C157.747 15.1569 157.325 14.5077 157.145 13.6581L158.599 13.2991C158.737 13.8376 159 14.2415 159.389 14.5107C159.784 14.78 160.298 14.9146 160.933 14.9146C161.645 14.9146 162.213 14.762 162.638 14.4569C163.069 14.1458 163.284 13.7778 163.284 13.353C163.284 12.647 162.787 12.1743 161.794 11.935L160.125 11.5401C159.204 11.3187 158.527 10.9807 158.097 10.526C157.666 10.0712 157.45 9.49986 157.45 8.8118C157.45 8.2434 157.609 7.74082 157.926 7.30405C158.249 6.86728 158.689 6.52624 159.245 6.28093C159.802 6.02964 160.43 5.904 161.13 5.904C162.129 5.904 162.91 6.12537 163.472 6.56812C164.041 7.00489 164.445 7.57927 164.684 8.29127ZM84.7267 36.0634H81.5138V34.6274H84.619C85.7259 34.6274 86.6413 34.415 87.3653 33.9902C88.0952 33.5654 88.6397 32.9581 88.9986 32.1683C89.3576 31.3786 89.5371 30.4392 89.5371 29.3503C89.5371 28.2733 89.3606 27.3459 89.0076 26.5681C88.6546 25.7843 88.1251 25.183 87.4191 24.7642C86.7191 24.3394 85.8455 24.127 84.7985 24.127H81.442V22.6911H84.9062C86.2045 22.6911 87.3144 22.9573 88.2358 23.4898C89.1632 24.0223 89.8722 24.7881 90.3628 25.7873C90.8534 26.7805 91.0987 27.9682 91.0987 29.3503C91.0987 30.7444 90.8504 31.944 90.3538 32.9491C89.8572 33.9483 89.1333 34.7171 88.182 35.2556C87.2366 35.7941 86.0849 36.0634 84.7267 36.0634ZM82.2138 22.6911V36.0634H80.5983V22.6911H82.2138ZM92.5663 36.0634V26.0296H94.092V36.0634H92.5663ZM93.3381 24.3603C93.0389 24.3603 92.7817 24.2586 92.5663 24.0552C92.3509 23.8518 92.2432 23.6065 92.2432 23.3193C92.2432 23.0321 92.3509 22.7868 92.5663 22.5834C92.7817 22.3799 93.0389 22.2782 93.3381 22.2782C93.6373 22.2782 93.8945 22.3799 94.1099 22.5834C94.3253 22.7868 94.433 23.0321 94.433 23.3193C94.433 23.6065 94.3253 23.8518 94.1099 24.0552C93.8945 24.2586 93.6373 24.3603 93.3381 24.3603ZM99.9212 40.0302C98.8024 40.0302 97.9169 39.8267 97.2647 39.4199C96.6185 39.013 96.1399 38.5464 95.8288 38.0198L97.0493 37.1583C97.1869 37.3437 97.3634 37.5532 97.5788 37.7865C97.7942 38.0258 98.0874 38.2322 98.4583 38.4058C98.8293 38.5793 99.3169 38.666 99.9212 38.666C100.729 38.666 101.396 38.4716 101.923 38.0827C102.455 37.6938 102.721 37.0805 102.721 36.2428V34.2146H102.578C102.47 34.3941 102.311 34.6184 102.102 34.8877C101.899 35.1509 101.602 35.3873 101.214 35.5967C100.831 35.8001 100.31 35.9018 99.652 35.9018C98.8443 35.9018 98.1203 35.7103 97.4801 35.3274C96.8399 34.9445 96.3313 34.3881 95.9544 33.6581C95.5834 32.9282 95.398 32.0427 95.398 31.0016C95.398 29.9725 95.5775 29.078 95.9364 28.3182C96.3014 27.5523 96.807 26.96 97.4532 26.5412C98.0994 26.1164 98.8443 25.904 99.6879 25.904C100.34 25.904 100.858 26.0117 101.24 26.2271C101.629 26.4425 101.926 26.6878 102.129 26.963C102.338 27.2323 102.5 27.4536 102.614 27.6271H102.775V26.0296H104.247V36.3505C104.247 37.2121 104.053 37.9121 103.664 38.4506C103.281 38.9951 102.76 39.393 102.102 39.6443C101.45 39.9015 100.723 40.0302 99.9212 40.0302ZM99.8674 34.5197C100.795 34.5197 101.504 34.2056 101.994 33.5774C102.491 32.9491 102.739 32.0786 102.739 30.9657C102.739 30.2418 102.632 29.6046 102.416 29.0541C102.201 28.5037 101.878 28.0729 101.447 27.7618C101.022 27.4447 100.496 27.2861 99.8674 27.2861C99.2152 27.2861 98.6707 27.4536 98.234 27.7887C97.8032 28.1178 97.4801 28.5605 97.2647 29.1169C97.0493 29.6734 96.9416 30.2896 96.9416 30.9657C96.9416 31.6598 97.0493 32.276 97.2647 32.8145C97.4861 33.347 97.8152 33.7658 98.2519 34.071C98.6887 34.3701 99.2272 34.5197 99.8674 34.5197ZM106.038 36.0634V26.0296H107.563V36.0634H106.038ZM106.809 24.3603C106.51 24.3603 106.253 24.2586 106.038 24.0552C105.822 23.8518 105.715 23.6065 105.715 23.3193C105.715 23.0321 105.822 22.7868 106.038 22.5834C106.253 22.3799 106.51 22.2782 106.809 22.2782C107.109 22.2782 107.366 22.3799 107.581 22.5834C107.797 22.7868 107.904 23.0321 107.904 23.3193C107.904 23.6065 107.797 23.8518 107.581 24.0552C107.366 24.2586 107.109 24.3603 106.809 24.3603ZM113.698 26.0296V27.3399H108.51V26.0296H113.698ZM110.018 23.6424H111.544V33.1915C111.544 33.712 111.652 34.0949 111.867 34.3402C112.082 34.5795 112.423 34.6992 112.89 34.6992C112.992 34.6992 113.096 34.6932 113.204 34.6813C113.318 34.6693 113.44 34.6513 113.572 34.6274L113.895 36.0095C113.752 36.0634 113.575 36.1052 113.366 36.1352C113.162 36.1711 112.956 36.189 112.746 36.189C111.939 36.189 111.281 35.9497 110.772 35.471C110.269 34.9924 110.018 34.3701 110.018 33.6043V23.6424ZM117.929 36.2967C117.295 36.2967 116.718 36.177 116.197 35.9377C115.677 35.6924 115.264 35.3394 114.959 34.8787C114.654 34.418 114.501 33.8616 114.501 33.2094C114.501 32.635 114.615 32.1713 114.842 31.8183C115.07 31.4593 115.372 31.1781 115.749 30.9747C116.132 30.7653 116.55 30.6097 117.005 30.508C117.466 30.4063 117.929 30.3255 118.396 30.2657C119.006 30.1879 119.5 30.1281 119.877 30.0862C120.26 30.0443 120.538 29.9725 120.712 29.8708C120.891 29.7691 120.981 29.5956 120.981 29.3503V29.2964C120.981 28.6562 120.804 28.1596 120.451 27.8066C120.104 27.4476 119.575 27.2682 118.863 27.2682C118.133 27.2682 117.559 27.4297 117.14 27.7528C116.721 28.0699 116.428 28.4109 116.26 28.7759L114.788 28.2554C115.052 27.6451 115.402 27.1694 115.838 26.8284C116.281 26.4874 116.76 26.248 117.274 26.1104C117.795 25.9728 118.306 25.904 118.809 25.904C119.132 25.904 119.503 25.9429 119.922 26.0207C120.341 26.0925 120.748 26.248 121.142 26.4874C121.543 26.7207 121.872 27.0767 122.13 27.5553C122.393 28.028 122.525 28.6622 122.525 29.458V36.0634H120.981V34.6992H120.909C120.807 34.9146 120.634 35.1479 120.389 35.3992C120.143 35.6445 119.817 35.8569 119.41 36.0364C119.009 36.2099 118.516 36.2967 117.929 36.2967ZM118.163 34.9146C118.773 34.9146 119.288 34.7949 119.706 34.5556C120.125 34.3163 120.442 34.0081 120.658 33.6312C120.873 33.2483 120.981 32.8504 120.981 32.4376V31.0196C120.915 31.0974 120.771 31.1692 120.55 31.235C120.335 31.2948 120.083 31.3486 119.796 31.3965C119.515 31.4444 119.24 31.4863 118.971 31.5222C118.701 31.5521 118.486 31.576 118.324 31.594C117.924 31.6478 117.55 31.7346 117.203 31.8542C116.856 31.9679 116.574 32.1384 116.359 32.3658C116.15 32.5931 116.045 32.9043 116.045 33.2991C116.045 33.8316 116.242 34.2355 116.637 34.5107C117.038 34.78 117.547 34.9146 118.163 34.9146ZM125.841 22.6911V36.0634H124.315V22.6911H125.841ZM131.832 36.2787C130.868 36.2787 130.034 36.0634 129.328 35.6326C128.628 35.2018 128.089 34.6005 127.712 33.8287C127.335 33.0508 127.147 32.1504 127.147 31.1273C127.147 30.0982 127.332 29.1917 127.703 28.4079C128.074 27.6241 128.595 27.0109 129.265 26.5681C129.941 26.1254 130.731 25.904 131.634 25.904C132.155 25.904 132.672 25.9908 133.187 26.1643C133.701 26.3378 134.168 26.619 134.587 27.0079C135.012 27.3968 135.35 27.9113 135.601 28.5515C135.852 29.1917 135.978 29.9785 135.978 30.9119V31.576H128.242V30.2478H135.143L134.434 30.7503C134.434 30.0802 134.33 29.4849 134.12 28.9644C133.911 28.4438 133.597 28.034 133.178 27.7348C132.765 27.4357 132.25 27.2861 131.634 27.2861C131.018 27.2861 130.488 27.4387 130.046 27.7438C129.609 28.043 129.274 28.4349 129.041 28.9195C128.807 29.4041 128.691 29.9247 128.691 30.4811V31.3606C128.691 32.1205 128.822 32.7637 129.085 33.2902C129.349 33.8167 129.717 34.2176 130.189 34.4928C130.662 34.762 131.209 34.8966 131.832 34.8966C132.233 34.8966 132.597 34.8398 132.927 34.7261C133.256 34.6065 133.54 34.43 133.779 34.1966C134.018 33.9573 134.201 33.6641 134.327 33.3171L135.816 33.7479C135.661 34.2505 135.398 34.6932 135.027 35.0761C134.662 35.4531 134.207 35.7492 133.662 35.9646C133.118 36.174 132.508 36.2787 131.832 36.2787ZM144.338 28.2913L142.956 28.6682C142.824 28.3272 142.597 28.0041 142.274 27.6989C141.957 27.3878 141.46 27.2323 140.784 27.2323C140.174 27.2323 139.665 27.3758 139.258 27.663C138.852 27.9442 138.648 28.2972 138.648 28.7221C138.648 29.105 138.786 29.4101 139.061 29.6375C139.342 29.8648 139.779 30.0503 140.371 30.1939L141.861 30.5529C142.753 30.7683 143.417 31.1003 143.853 31.5491C144.296 31.9978 144.518 32.5692 144.518 33.2632C144.518 33.8376 144.353 34.3522 144.024 34.8069C143.695 35.2616 143.237 35.6206 142.651 35.8839C142.064 36.1471 141.382 36.2787 140.605 36.2787C139.581 36.2787 138.735 36.0544 138.065 35.6056C137.401 35.1569 136.979 34.5077 136.799 33.6581L138.253 33.2991C138.391 33.8376 138.654 34.2415 139.043 34.5107C139.438 34.78 139.952 34.9146 140.587 34.9146C141.299 34.9146 141.867 34.762 142.292 34.4569C142.723 34.1458 142.938 33.7778 142.938 33.353C142.938 32.647 142.441 32.1743 141.448 31.935L139.779 31.5401C138.858 31.3187 138.181 30.9807 137.751 30.526C137.32 30.0712 137.104 29.4999 137.104 28.8118C137.104 28.2434 137.263 27.7408 137.58 27.304C137.903 26.8673 138.343 26.5262 138.899 26.2809C139.456 26.0296 140.084 25.904 140.784 25.904C141.783 25.904 142.564 26.1254 143.126 26.5681C143.695 27.0049 144.099 27.5793 144.338 28.2913Z" fill="#4E4E4E"/>
</svg>
