<svg width="56" height="56" viewBox="0 0 56 56" fill="none" xmlns="http://www.w3.org/2000/svg">
<rect width="55.5" height="55.5" rx="27.75" fill="#0AE387"/>
<path fill-rule="evenodd" clip-rule="evenodd" d="M27.5 12C18.9393 12 12 18.9393 12 27.5C12 30.4295 12.8137 33.173 14.2289 35.5104L12.8463 40.21C12.7669 40.4798 12.7617 40.766 12.8312 41.0386C12.9007 41.3111 13.0423 41.5599 13.2412 41.7588C13.4401 41.9577 13.6889 42.0993 13.9614 42.1688C14.2339 42.2383 14.5202 42.2331 14.79 42.1537L19.4896 40.7711C21.9055 42.2329 24.6762 43.0038 27.5 43C36.0606 43 43 36.0606 43 27.5C43 18.9393 36.0606 12 27.5 12Z" fill="white"/>
<path d="M36.3439 29.9997L31.5939 27.6247C31.4069 27.5315 31.1987 27.4893 30.9902 27.5023C30.7817 27.5154 30.5803 27.5832 30.4064 27.6989L28.2259 29.1536C27.2249 28.6033 26.4011 27.7796 25.8509 26.7786L27.3055 24.598C27.4213 24.4241 27.4891 24.2228 27.5021 24.0143C27.5151 23.8058 27.4729 23.5975 27.3798 23.4105L25.0048 18.6606C24.9063 18.4617 24.7542 18.2945 24.5655 18.1778C24.3769 18.061 24.1593 17.9994 23.9375 18C22.3628 18 20.8526 18.6256 19.7391 19.7391C18.6256 20.8526 18 22.3628 18 23.9375C18.0039 27.4007 19.3814 30.7209 21.8303 33.1697C24.2791 35.6186 27.5993 36.9961 31.0625 37C31.8422 37 32.6143 36.8464 33.3347 36.548C34.0551 36.2496 34.7096 35.8123 35.2609 35.2609C35.8123 34.7096 36.2496 34.0551 36.548 33.3347C36.8464 32.6143 37 31.8422 37 31.0625C37.0002 30.8419 36.9389 30.6256 36.823 30.4379C36.7071 30.2501 36.5412 30.0984 36.3439 29.9997ZM31.0625 34.625C28.229 34.6219 25.5124 33.4948 23.5088 31.4912C21.5052 29.4876 20.3781 26.771 20.375 23.9375C20.3748 23.1139 20.6599 22.3156 21.182 21.6785C21.7041 21.0414 22.4307 20.6049 23.2384 20.4433L24.9424 23.8573L23.4922 26.0156C23.3838 26.1782 23.3172 26.365 23.2983 26.5594C23.2794 26.7539 23.3088 26.95 23.3838 27.1304C24.2335 29.1497 25.8399 30.7561 27.8592 31.6058C28.0402 31.6841 28.2378 31.7162 28.4342 31.6991C28.6306 31.682 28.8197 31.6163 28.9844 31.5078L31.153 30.062L34.5671 31.7661C34.4042 32.5747 33.9658 33.3017 33.3267 33.823C32.6875 34.3444 31.8873 34.6278 31.0625 34.625Z" fill="#0AE387"/>
</svg>
